<mxfile host="Electron" modified="2023-05-06T21:26:12.921Z" agent="Mozilla/5.0 (Windows NT 10.0; Win64; x64) AppleWebKit/537.36 (KHTML, like Gecko) draw.io/21.2.1 Chrome/112.0.5615.87 Electron/24.1.2 Safari/537.36" etag="9Eihy6EbDkhJkiz9tKNZ" version="21.2.1" type="device">
  <diagram name="Page-1" id="Ue20mFvMjse9uV21sAbw">
    <mxGraphModel dx="1276" dy="614" grid="1" gridSize="10" guides="1" tooltips="1" connect="1" arrows="1" fold="1" page="1" pageScale="1" pageWidth="850" pageHeight="1100" math="0" shadow="0">
      <root>
        <mxCell id="0" />
        <mxCell id="1" parent="0" />
        <mxCell id="GK1M3SSGeQhj2WIBVa1E-157" value="Employee" style="shape=table;startSize=30;container=1;collapsible=1;childLayout=tableLayout;fixedRows=1;rowLines=0;fontStyle=1;align=center;resizeLast=1;html=1;" parent="1" vertex="1">
          <mxGeometry x="30" y="30" width="210" height="240" as="geometry" />
        </mxCell>
        <mxCell id="GK1M3SSGeQhj2WIBVa1E-158" value="" style="shape=tableRow;horizontal=0;startSize=0;swimlaneHead=0;swimlaneBody=0;fillColor=none;collapsible=0;dropTarget=0;points=[[0,0.5],[1,0.5]];portConstraint=eastwest;top=0;left=0;right=0;bottom=1;" parent="GK1M3SSGeQhj2WIBVa1E-157" vertex="1">
          <mxGeometry y="30" width="210" height="30" as="geometry" />
        </mxCell>
        <mxCell id="GK1M3SSGeQhj2WIBVa1E-159" value="PK, int" style="shape=partialRectangle;connectable=0;fillColor=none;top=0;left=0;bottom=0;right=0;fontStyle=1;overflow=hidden;whiteSpace=wrap;html=1;" parent="GK1M3SSGeQhj2WIBVa1E-158" vertex="1">
          <mxGeometry width="80" height="30" as="geometry">
            <mxRectangle width="80" height="30" as="alternateBounds" />
          </mxGeometry>
        </mxCell>
        <mxCell id="GK1M3SSGeQhj2WIBVa1E-160" value="EmployeeID" style="shape=partialRectangle;connectable=0;fillColor=none;top=0;left=0;bottom=0;right=0;align=left;spacingLeft=6;fontStyle=5;overflow=hidden;whiteSpace=wrap;html=1;" parent="GK1M3SSGeQhj2WIBVa1E-158" vertex="1">
          <mxGeometry x="80" width="130" height="30" as="geometry">
            <mxRectangle width="130" height="30" as="alternateBounds" />
          </mxGeometry>
        </mxCell>
        <mxCell id="GK1M3SSGeQhj2WIBVa1E-161" value="" style="shape=tableRow;horizontal=0;startSize=0;swimlaneHead=0;swimlaneBody=0;fillColor=none;collapsible=0;dropTarget=0;points=[[0,0.5],[1,0.5]];portConstraint=eastwest;top=0;left=0;right=0;bottom=0;" parent="GK1M3SSGeQhj2WIBVa1E-157" vertex="1">
          <mxGeometry y="60" width="210" height="30" as="geometry" />
        </mxCell>
        <mxCell id="GK1M3SSGeQhj2WIBVa1E-162" value="FK, int" style="shape=partialRectangle;connectable=0;fillColor=none;top=0;left=0;bottom=0;right=0;editable=1;overflow=hidden;whiteSpace=wrap;html=1;" parent="GK1M3SSGeQhj2WIBVa1E-161" vertex="1">
          <mxGeometry width="80" height="30" as="geometry">
            <mxRectangle width="80" height="30" as="alternateBounds" />
          </mxGeometry>
        </mxCell>
        <mxCell id="GK1M3SSGeQhj2WIBVa1E-163" value="OrganizationID" style="shape=partialRectangle;connectable=0;fillColor=none;top=0;left=0;bottom=0;right=0;align=left;spacingLeft=6;overflow=hidden;whiteSpace=wrap;html=1;" parent="GK1M3SSGeQhj2WIBVa1E-161" vertex="1">
          <mxGeometry x="80" width="130" height="30" as="geometry">
            <mxRectangle width="130" height="30" as="alternateBounds" />
          </mxGeometry>
        </mxCell>
        <mxCell id="GK1M3SSGeQhj2WIBVa1E-164" value="" style="shape=tableRow;horizontal=0;startSize=0;swimlaneHead=0;swimlaneBody=0;fillColor=none;collapsible=0;dropTarget=0;points=[[0,0.5],[1,0.5]];portConstraint=eastwest;top=0;left=0;right=0;bottom=0;" parent="GK1M3SSGeQhj2WIBVa1E-157" vertex="1">
          <mxGeometry y="90" width="210" height="30" as="geometry" />
        </mxCell>
        <mxCell id="GK1M3SSGeQhj2WIBVa1E-165" value="nvarchar(50)" style="shape=partialRectangle;connectable=0;fillColor=none;top=0;left=0;bottom=0;right=0;editable=1;overflow=hidden;whiteSpace=wrap;html=1;" parent="GK1M3SSGeQhj2WIBVa1E-164" vertex="1">
          <mxGeometry width="80" height="30" as="geometry">
            <mxRectangle width="80" height="30" as="alternateBounds" />
          </mxGeometry>
        </mxCell>
        <mxCell id="GK1M3SSGeQhj2WIBVa1E-166" value="FirstName" style="shape=partialRectangle;connectable=0;fillColor=none;top=0;left=0;bottom=0;right=0;align=left;spacingLeft=6;overflow=hidden;whiteSpace=wrap;html=1;" parent="GK1M3SSGeQhj2WIBVa1E-164" vertex="1">
          <mxGeometry x="80" width="130" height="30" as="geometry">
            <mxRectangle width="130" height="30" as="alternateBounds" />
          </mxGeometry>
        </mxCell>
        <mxCell id="GK1M3SSGeQhj2WIBVa1E-167" value="" style="shape=tableRow;horizontal=0;startSize=0;swimlaneHead=0;swimlaneBody=0;fillColor=none;collapsible=0;dropTarget=0;points=[[0,0.5],[1,0.5]];portConstraint=eastwest;top=0;left=0;right=0;bottom=0;" parent="GK1M3SSGeQhj2WIBVa1E-157" vertex="1">
          <mxGeometry y="120" width="210" height="30" as="geometry" />
        </mxCell>
        <mxCell id="GK1M3SSGeQhj2WIBVa1E-168" value="&lt;span style=&quot;color: rgb(0, 0, 0); font-family: Helvetica; font-size: 12px; font-style: normal; font-variant-ligatures: normal; font-variant-caps: normal; font-weight: 400; letter-spacing: normal; orphans: 2; text-align: center; text-indent: 0px; text-transform: none; widows: 2; word-spacing: 0px; -webkit-text-stroke-width: 0px; background-color: rgb(251, 251, 251); text-decoration-thickness: initial; text-decoration-style: initial; text-decoration-color: initial; float: none; display: inline !important;&quot;&gt;nvarchar(50)&lt;/span&gt;&lt;br&gt;" style="shape=partialRectangle;connectable=0;fillColor=none;top=0;left=0;bottom=0;right=0;editable=1;overflow=hidden;whiteSpace=wrap;html=1;" parent="GK1M3SSGeQhj2WIBVa1E-167" vertex="1">
          <mxGeometry width="80" height="30" as="geometry">
            <mxRectangle width="80" height="30" as="alternateBounds" />
          </mxGeometry>
        </mxCell>
        <mxCell id="GK1M3SSGeQhj2WIBVa1E-169" value="LastName" style="shape=partialRectangle;connectable=0;fillColor=none;top=0;left=0;bottom=0;right=0;align=left;spacingLeft=6;overflow=hidden;whiteSpace=wrap;html=1;" parent="GK1M3SSGeQhj2WIBVa1E-167" vertex="1">
          <mxGeometry x="80" width="130" height="30" as="geometry">
            <mxRectangle width="130" height="30" as="alternateBounds" />
          </mxGeometry>
        </mxCell>
        <mxCell id="GK1M3SSGeQhj2WIBVa1E-170" style="shape=tableRow;horizontal=0;startSize=0;swimlaneHead=0;swimlaneBody=0;fillColor=none;collapsible=0;dropTarget=0;points=[[0,0.5],[1,0.5]];portConstraint=eastwest;top=0;left=0;right=0;bottom=0;" parent="GK1M3SSGeQhj2WIBVa1E-157" vertex="1">
          <mxGeometry y="150" width="210" height="30" as="geometry" />
        </mxCell>
        <mxCell id="GK1M3SSGeQhj2WIBVa1E-171" value="nvarchar(50)" style="shape=partialRectangle;connectable=0;fillColor=none;top=0;left=0;bottom=0;right=0;editable=1;overflow=hidden;whiteSpace=wrap;html=1;" parent="GK1M3SSGeQhj2WIBVa1E-170" vertex="1">
          <mxGeometry width="80" height="30" as="geometry">
            <mxRectangle width="80" height="30" as="alternateBounds" />
          </mxGeometry>
        </mxCell>
        <mxCell id="GK1M3SSGeQhj2WIBVa1E-172" value="Email" style="shape=partialRectangle;connectable=0;fillColor=none;top=0;left=0;bottom=0;right=0;align=left;spacingLeft=6;overflow=hidden;whiteSpace=wrap;html=1;" parent="GK1M3SSGeQhj2WIBVa1E-170" vertex="1">
          <mxGeometry x="80" width="130" height="30" as="geometry">
            <mxRectangle width="130" height="30" as="alternateBounds" />
          </mxGeometry>
        </mxCell>
        <mxCell id="GK1M3SSGeQhj2WIBVa1E-174" style="shape=tableRow;horizontal=0;startSize=0;swimlaneHead=0;swimlaneBody=0;fillColor=none;collapsible=0;dropTarget=0;points=[[0,0.5],[1,0.5]];portConstraint=eastwest;top=0;left=0;right=0;bottom=0;" parent="GK1M3SSGeQhj2WIBVa1E-157" vertex="1">
          <mxGeometry y="180" width="210" height="30" as="geometry" />
        </mxCell>
        <mxCell id="GK1M3SSGeQhj2WIBVa1E-175" value="varchar(20)" style="shape=partialRectangle;connectable=0;fillColor=none;top=0;left=0;bottom=0;right=0;editable=1;overflow=hidden;whiteSpace=wrap;html=1;" parent="GK1M3SSGeQhj2WIBVa1E-174" vertex="1">
          <mxGeometry width="80" height="30" as="geometry">
            <mxRectangle width="80" height="30" as="alternateBounds" />
          </mxGeometry>
        </mxCell>
        <mxCell id="GK1M3SSGeQhj2WIBVa1E-176" value="PhoneNumber" style="shape=partialRectangle;connectable=0;fillColor=none;top=0;left=0;bottom=0;right=0;align=left;spacingLeft=6;overflow=hidden;whiteSpace=wrap;html=1;" parent="GK1M3SSGeQhj2WIBVa1E-174" vertex="1">
          <mxGeometry x="80" width="130" height="30" as="geometry">
            <mxRectangle width="130" height="30" as="alternateBounds" />
          </mxGeometry>
        </mxCell>
        <mxCell id="GK1M3SSGeQhj2WIBVa1E-177" style="shape=tableRow;horizontal=0;startSize=0;swimlaneHead=0;swimlaneBody=0;fillColor=none;collapsible=0;dropTarget=0;points=[[0,0.5],[1,0.5]];portConstraint=eastwest;top=0;left=0;right=0;bottom=0;" parent="GK1M3SSGeQhj2WIBVa1E-157" vertex="1">
          <mxGeometry y="210" width="210" height="30" as="geometry" />
        </mxCell>
        <mxCell id="GK1M3SSGeQhj2WIBVa1E-178" value="datetime" style="shape=partialRectangle;connectable=0;fillColor=none;top=0;left=0;bottom=0;right=0;editable=1;overflow=hidden;whiteSpace=wrap;html=1;" parent="GK1M3SSGeQhj2WIBVa1E-177" vertex="1">
          <mxGeometry width="80" height="30" as="geometry">
            <mxRectangle width="80" height="30" as="alternateBounds" />
          </mxGeometry>
        </mxCell>
        <mxCell id="GK1M3SSGeQhj2WIBVa1E-179" value="BirthDate" style="shape=partialRectangle;connectable=0;fillColor=none;top=0;left=0;bottom=0;right=0;align=left;spacingLeft=6;overflow=hidden;whiteSpace=wrap;html=1;" parent="GK1M3SSGeQhj2WIBVa1E-177" vertex="1">
          <mxGeometry x="80" width="130" height="30" as="geometry">
            <mxRectangle width="130" height="30" as="alternateBounds" />
          </mxGeometry>
        </mxCell>
        <mxCell id="GK1M3SSGeQhj2WIBVa1E-183" value="Item" style="shape=table;startSize=30;container=1;collapsible=1;childLayout=tableLayout;fixedRows=1;rowLines=0;fontStyle=1;align=center;resizeLast=1;html=1;" parent="1" vertex="1">
          <mxGeometry x="330" y="140" width="210" height="300" as="geometry" />
        </mxCell>
        <mxCell id="GK1M3SSGeQhj2WIBVa1E-184" value="" style="shape=tableRow;horizontal=0;startSize=0;swimlaneHead=0;swimlaneBody=0;fillColor=none;collapsible=0;dropTarget=0;points=[[0,0.5],[1,0.5]];portConstraint=eastwest;top=0;left=0;right=0;bottom=1;" parent="GK1M3SSGeQhj2WIBVa1E-183" vertex="1">
          <mxGeometry y="30" width="210" height="30" as="geometry" />
        </mxCell>
        <mxCell id="GK1M3SSGeQhj2WIBVa1E-185" value="PK, int" style="shape=partialRectangle;connectable=0;fillColor=none;top=0;left=0;bottom=0;right=0;fontStyle=1;overflow=hidden;whiteSpace=wrap;html=1;" parent="GK1M3SSGeQhj2WIBVa1E-184" vertex="1">
          <mxGeometry width="89.99999999999977" height="30" as="geometry">
            <mxRectangle width="89.99999999999977" height="30" as="alternateBounds" />
          </mxGeometry>
        </mxCell>
        <mxCell id="GK1M3SSGeQhj2WIBVa1E-186" value="ItemID" style="shape=partialRectangle;connectable=0;fillColor=none;top=0;left=0;bottom=0;right=0;align=left;spacingLeft=6;fontStyle=5;overflow=hidden;whiteSpace=wrap;html=1;" parent="GK1M3SSGeQhj2WIBVa1E-184" vertex="1">
          <mxGeometry x="89.99999999999977" width="120.00000000000023" height="30" as="geometry">
            <mxRectangle width="120.00000000000023" height="30" as="alternateBounds" />
          </mxGeometry>
        </mxCell>
        <mxCell id="GK1M3SSGeQhj2WIBVa1E-187" value="" style="shape=tableRow;horizontal=0;startSize=0;swimlaneHead=0;swimlaneBody=0;fillColor=none;collapsible=0;dropTarget=0;points=[[0,0.5],[1,0.5]];portConstraint=eastwest;top=0;left=0;right=0;bottom=0;" parent="GK1M3SSGeQhj2WIBVa1E-183" vertex="1">
          <mxGeometry y="60" width="210" height="30" as="geometry" />
        </mxCell>
        <mxCell id="GK1M3SSGeQhj2WIBVa1E-188" value="FK, int" style="shape=partialRectangle;connectable=0;fillColor=none;top=0;left=0;bottom=0;right=0;editable=1;overflow=hidden;whiteSpace=wrap;html=1;" parent="GK1M3SSGeQhj2WIBVa1E-187" vertex="1">
          <mxGeometry width="89.99999999999977" height="30" as="geometry">
            <mxRectangle width="89.99999999999977" height="30" as="alternateBounds" />
          </mxGeometry>
        </mxCell>
        <mxCell id="GK1M3SSGeQhj2WIBVa1E-189" value="EmployeeID" style="shape=partialRectangle;connectable=0;fillColor=none;top=0;left=0;bottom=0;right=0;align=left;spacingLeft=6;overflow=hidden;whiteSpace=wrap;html=1;" parent="GK1M3SSGeQhj2WIBVa1E-187" vertex="1">
          <mxGeometry x="89.99999999999977" width="120.00000000000023" height="30" as="geometry">
            <mxRectangle width="120.00000000000023" height="30" as="alternateBounds" />
          </mxGeometry>
        </mxCell>
        <mxCell id="GK1M3SSGeQhj2WIBVa1E-190" value="" style="shape=tableRow;horizontal=0;startSize=0;swimlaneHead=0;swimlaneBody=0;fillColor=none;collapsible=0;dropTarget=0;points=[[0,0.5],[1,0.5]];portConstraint=eastwest;top=0;left=0;right=0;bottom=0;" parent="GK1M3SSGeQhj2WIBVa1E-183" vertex="1">
          <mxGeometry y="90" width="210" height="30" as="geometry" />
        </mxCell>
        <mxCell id="GK1M3SSGeQhj2WIBVa1E-191" value="FK, int" style="shape=partialRectangle;connectable=0;fillColor=none;top=0;left=0;bottom=0;right=0;editable=1;overflow=hidden;whiteSpace=wrap;html=1;" parent="GK1M3SSGeQhj2WIBVa1E-190" vertex="1">
          <mxGeometry width="89.99999999999977" height="30" as="geometry">
            <mxRectangle width="89.99999999999977" height="30" as="alternateBounds" />
          </mxGeometry>
        </mxCell>
        <mxCell id="GK1M3SSGeQhj2WIBVa1E-192" value="OrganizationID" style="shape=partialRectangle;connectable=0;fillColor=none;top=0;left=0;bottom=0;right=0;align=left;spacingLeft=6;overflow=hidden;whiteSpace=wrap;html=1;" parent="GK1M3SSGeQhj2WIBVa1E-190" vertex="1">
          <mxGeometry x="89.99999999999977" width="120.00000000000023" height="30" as="geometry">
            <mxRectangle width="120.00000000000023" height="30" as="alternateBounds" />
          </mxGeometry>
        </mxCell>
        <mxCell id="GK1M3SSGeQhj2WIBVa1E-193" value="" style="shape=tableRow;horizontal=0;startSize=0;swimlaneHead=0;swimlaneBody=0;fillColor=none;collapsible=0;dropTarget=0;points=[[0,0.5],[1,0.5]];portConstraint=eastwest;top=0;left=0;right=0;bottom=0;" parent="GK1M3SSGeQhj2WIBVa1E-183" vertex="1">
          <mxGeometry y="120" width="210" height="30" as="geometry" />
        </mxCell>
        <mxCell id="GK1M3SSGeQhj2WIBVa1E-194" value="&lt;span style=&quot;color: rgb(0, 0, 0); font-family: Helvetica; font-size: 12px; font-style: normal; font-variant-ligatures: normal; font-variant-caps: normal; font-weight: 400; letter-spacing: normal; orphans: 2; text-align: center; text-indent: 0px; text-transform: none; widows: 2; word-spacing: 0px; -webkit-text-stroke-width: 0px; background-color: rgb(251, 251, 251); text-decoration-thickness: initial; text-decoration-style: initial; text-decoration-color: initial; float: none; display: inline !important;&quot;&gt;FK, int&lt;/span&gt;" style="shape=partialRectangle;connectable=0;fillColor=none;top=0;left=0;bottom=0;right=0;editable=1;overflow=hidden;whiteSpace=wrap;html=1;" parent="GK1M3SSGeQhj2WIBVa1E-193" vertex="1">
          <mxGeometry width="89.99999999999977" height="30" as="geometry">
            <mxRectangle width="89.99999999999977" height="30" as="alternateBounds" />
          </mxGeometry>
        </mxCell>
        <mxCell id="GK1M3SSGeQhj2WIBVa1E-195" value="UserID" style="shape=partialRectangle;connectable=0;fillColor=none;top=0;left=0;bottom=0;right=0;align=left;spacingLeft=6;overflow=hidden;whiteSpace=wrap;html=1;" parent="GK1M3SSGeQhj2WIBVa1E-193" vertex="1">
          <mxGeometry x="89.99999999999977" width="120.00000000000023" height="30" as="geometry">
            <mxRectangle width="120.00000000000023" height="30" as="alternateBounds" />
          </mxGeometry>
        </mxCell>
        <mxCell id="GK1M3SSGeQhj2WIBVa1E-196" style="shape=tableRow;horizontal=0;startSize=0;swimlaneHead=0;swimlaneBody=0;fillColor=none;collapsible=0;dropTarget=0;points=[[0,0.5],[1,0.5]];portConstraint=eastwest;top=0;left=0;right=0;bottom=0;" parent="GK1M3SSGeQhj2WIBVa1E-183" vertex="1">
          <mxGeometry y="150" width="210" height="30" as="geometry" />
        </mxCell>
        <mxCell id="GK1M3SSGeQhj2WIBVa1E-197" value="nvarchar(50)" style="shape=partialRectangle;connectable=0;fillColor=none;top=0;left=0;bottom=0;right=0;editable=1;overflow=hidden;whiteSpace=wrap;html=1;" parent="GK1M3SSGeQhj2WIBVa1E-196" vertex="1">
          <mxGeometry width="89.99999999999977" height="30" as="geometry">
            <mxRectangle width="89.99999999999977" height="30" as="alternateBounds" />
          </mxGeometry>
        </mxCell>
        <mxCell id="GK1M3SSGeQhj2WIBVa1E-198" value="Shape" style="shape=partialRectangle;connectable=0;fillColor=none;top=0;left=0;bottom=0;right=0;align=left;spacingLeft=6;overflow=hidden;whiteSpace=wrap;html=1;" parent="GK1M3SSGeQhj2WIBVa1E-196" vertex="1">
          <mxGeometry x="89.99999999999977" width="120.00000000000023" height="30" as="geometry">
            <mxRectangle width="120.00000000000023" height="30" as="alternateBounds" />
          </mxGeometry>
        </mxCell>
        <mxCell id="GK1M3SSGeQhj2WIBVa1E-199" style="shape=tableRow;horizontal=0;startSize=0;swimlaneHead=0;swimlaneBody=0;fillColor=none;collapsible=0;dropTarget=0;points=[[0,0.5],[1,0.5]];portConstraint=eastwest;top=0;left=0;right=0;bottom=0;" parent="GK1M3SSGeQhj2WIBVa1E-183" vertex="1">
          <mxGeometry y="180" width="210" height="30" as="geometry" />
        </mxCell>
        <mxCell id="GK1M3SSGeQhj2WIBVa1E-200" value="varchar(20)" style="shape=partialRectangle;connectable=0;fillColor=none;top=0;left=0;bottom=0;right=0;editable=1;overflow=hidden;whiteSpace=wrap;html=1;" parent="GK1M3SSGeQhj2WIBVa1E-199" vertex="1">
          <mxGeometry width="89.99999999999977" height="30" as="geometry">
            <mxRectangle width="89.99999999999977" height="30" as="alternateBounds" />
          </mxGeometry>
        </mxCell>
        <mxCell id="GK1M3SSGeQhj2WIBVa1E-201" value="Dimensions" style="shape=partialRectangle;connectable=0;fillColor=none;top=0;left=0;bottom=0;right=0;align=left;spacingLeft=6;overflow=hidden;whiteSpace=wrap;html=1;" parent="GK1M3SSGeQhj2WIBVa1E-199" vertex="1">
          <mxGeometry x="89.99999999999977" width="120.00000000000023" height="30" as="geometry">
            <mxRectangle width="120.00000000000023" height="30" as="alternateBounds" />
          </mxGeometry>
        </mxCell>
        <mxCell id="GK1M3SSGeQhj2WIBVa1E-202" style="shape=tableRow;horizontal=0;startSize=0;swimlaneHead=0;swimlaneBody=0;fillColor=none;collapsible=0;dropTarget=0;points=[[0,0.5],[1,0.5]];portConstraint=eastwest;top=0;left=0;right=0;bottom=0;" parent="GK1M3SSGeQhj2WIBVa1E-183" vertex="1">
          <mxGeometry y="210" width="210" height="30" as="geometry" />
        </mxCell>
        <mxCell id="GK1M3SSGeQhj2WIBVa1E-203" value="nvarchar(200)" style="shape=partialRectangle;connectable=0;fillColor=none;top=0;left=0;bottom=0;right=0;editable=1;overflow=hidden;whiteSpace=wrap;html=1;" parent="GK1M3SSGeQhj2WIBVa1E-202" vertex="1">
          <mxGeometry width="89.99999999999977" height="30" as="geometry">
            <mxRectangle width="89.99999999999977" height="30" as="alternateBounds" />
          </mxGeometry>
        </mxCell>
        <mxCell id="GK1M3SSGeQhj2WIBVa1E-204" value="FoundLocation" style="shape=partialRectangle;connectable=0;fillColor=none;top=0;left=0;bottom=0;right=0;align=left;spacingLeft=6;overflow=hidden;whiteSpace=wrap;html=1;" parent="GK1M3SSGeQhj2WIBVa1E-202" vertex="1">
          <mxGeometry x="89.99999999999977" width="120.00000000000023" height="30" as="geometry">
            <mxRectangle width="120.00000000000023" height="30" as="alternateBounds" />
          </mxGeometry>
        </mxCell>
        <mxCell id="GK1M3SSGeQhj2WIBVa1E-205" style="shape=tableRow;horizontal=0;startSize=0;swimlaneHead=0;swimlaneBody=0;fillColor=none;collapsible=0;dropTarget=0;points=[[0,0.5],[1,0.5]];portConstraint=eastwest;top=0;left=0;right=0;bottom=0;" parent="GK1M3SSGeQhj2WIBVa1E-183" vertex="1">
          <mxGeometry y="240" width="210" height="30" as="geometry" />
        </mxCell>
        <mxCell id="GK1M3SSGeQhj2WIBVa1E-206" value="varchar(20)" style="shape=partialRectangle;connectable=0;fillColor=none;top=0;left=0;bottom=0;right=0;editable=1;overflow=hidden;whiteSpace=wrap;html=1;" parent="GK1M3SSGeQhj2WIBVa1E-205" vertex="1">
          <mxGeometry width="89.99999999999977" height="30" as="geometry">
            <mxRectangle width="89.99999999999977" height="30" as="alternateBounds" />
          </mxGeometry>
        </mxCell>
        <mxCell id="GK1M3SSGeQhj2WIBVa1E-207" value="Color" style="shape=partialRectangle;connectable=0;fillColor=none;top=0;left=0;bottom=0;right=0;align=left;spacingLeft=6;overflow=hidden;whiteSpace=wrap;html=1;" parent="GK1M3SSGeQhj2WIBVa1E-205" vertex="1">
          <mxGeometry x="89.99999999999977" width="120.00000000000023" height="30" as="geometry">
            <mxRectangle width="120.00000000000023" height="30" as="alternateBounds" />
          </mxGeometry>
        </mxCell>
        <mxCell id="GK1M3SSGeQhj2WIBVa1E-209" style="shape=tableRow;horizontal=0;startSize=0;swimlaneHead=0;swimlaneBody=0;fillColor=none;collapsible=0;dropTarget=0;points=[[0,0.5],[1,0.5]];portConstraint=eastwest;top=0;left=0;right=0;bottom=0;" parent="GK1M3SSGeQhj2WIBVa1E-183" vertex="1">
          <mxGeometry y="270" width="210" height="30" as="geometry" />
        </mxCell>
        <mxCell id="GK1M3SSGeQhj2WIBVa1E-210" value="datetime" style="shape=partialRectangle;connectable=0;fillColor=none;top=0;left=0;bottom=0;right=0;editable=1;overflow=hidden;whiteSpace=wrap;html=1;" parent="GK1M3SSGeQhj2WIBVa1E-209" vertex="1">
          <mxGeometry width="89.99999999999977" height="30" as="geometry">
            <mxRectangle width="89.99999999999977" height="30" as="alternateBounds" />
          </mxGeometry>
        </mxCell>
        <mxCell id="GK1M3SSGeQhj2WIBVa1E-211" value="FoundDate" style="shape=partialRectangle;connectable=0;fillColor=none;top=0;left=0;bottom=0;right=0;align=left;spacingLeft=6;overflow=hidden;whiteSpace=wrap;html=1;" parent="GK1M3SSGeQhj2WIBVa1E-209" vertex="1">
          <mxGeometry x="89.99999999999977" width="120.00000000000023" height="30" as="geometry">
            <mxRectangle width="120.00000000000023" height="30" as="alternateBounds" />
          </mxGeometry>
        </mxCell>
        <mxCell id="GK1M3SSGeQhj2WIBVa1E-208" value="" style="edgeStyle=entityRelationEdgeStyle;fontSize=12;html=1;endArrow=ERoneToMany;startArrow=ERzeroToOne;rounded=0;" parent="1" source="GK1M3SSGeQhj2WIBVa1E-158" target="GK1M3SSGeQhj2WIBVa1E-187" edge="1">
          <mxGeometry width="100" height="100" relative="1" as="geometry">
            <mxPoint x="220" y="-115" as="sourcePoint" />
            <mxPoint x="325" y="50" as="targetPoint" />
          </mxGeometry>
        </mxCell>
        <mxCell id="GK1M3SSGeQhj2WIBVa1E-230" value="Action" style="shape=table;startSize=30;container=1;collapsible=1;childLayout=tableLayout;fixedRows=1;rowLines=0;fontStyle=1;align=center;resizeLast=1;html=1;" parent="1" vertex="1">
          <mxGeometry x="30" y="340" width="210" height="120" as="geometry" />
        </mxCell>
        <mxCell id="GK1M3SSGeQhj2WIBVa1E-231" value="" style="shape=tableRow;horizontal=0;startSize=0;swimlaneHead=0;swimlaneBody=0;fillColor=none;collapsible=0;dropTarget=0;points=[[0,0.5],[1,0.5]];portConstraint=eastwest;top=0;left=0;right=0;bottom=1;" parent="GK1M3SSGeQhj2WIBVa1E-230" vertex="1">
          <mxGeometry y="30" width="210" height="30" as="geometry" />
        </mxCell>
        <mxCell id="GK1M3SSGeQhj2WIBVa1E-232" value="PK, int" style="shape=partialRectangle;connectable=0;fillColor=none;top=0;left=0;bottom=0;right=0;fontStyle=1;overflow=hidden;whiteSpace=wrap;html=1;" parent="GK1M3SSGeQhj2WIBVa1E-231" vertex="1">
          <mxGeometry width="80" height="30" as="geometry">
            <mxRectangle width="80" height="30" as="alternateBounds" />
          </mxGeometry>
        </mxCell>
        <mxCell id="GK1M3SSGeQhj2WIBVa1E-233" value="ActionID" style="shape=partialRectangle;connectable=0;fillColor=none;top=0;left=0;bottom=0;right=0;align=left;spacingLeft=6;fontStyle=5;overflow=hidden;whiteSpace=wrap;html=1;" parent="GK1M3SSGeQhj2WIBVa1E-231" vertex="1">
          <mxGeometry x="80" width="130" height="30" as="geometry">
            <mxRectangle width="130" height="30" as="alternateBounds" />
          </mxGeometry>
        </mxCell>
        <mxCell id="GK1M3SSGeQhj2WIBVa1E-234" value="" style="shape=tableRow;horizontal=0;startSize=0;swimlaneHead=0;swimlaneBody=0;fillColor=none;collapsible=0;dropTarget=0;points=[[0,0.5],[1,0.5]];portConstraint=eastwest;top=0;left=0;right=0;bottom=0;" parent="GK1M3SSGeQhj2WIBVa1E-230" vertex="1">
          <mxGeometry y="60" width="210" height="30" as="geometry" />
        </mxCell>
        <mxCell id="GK1M3SSGeQhj2WIBVa1E-235" value="FK, int" style="shape=partialRectangle;connectable=0;fillColor=none;top=0;left=0;bottom=0;right=0;editable=1;overflow=hidden;whiteSpace=wrap;html=1;" parent="GK1M3SSGeQhj2WIBVa1E-234" vertex="1">
          <mxGeometry width="80" height="30" as="geometry">
            <mxRectangle width="80" height="30" as="alternateBounds" />
          </mxGeometry>
        </mxCell>
        <mxCell id="GK1M3SSGeQhj2WIBVa1E-236" value="ItemID" style="shape=partialRectangle;connectable=0;fillColor=none;top=0;left=0;bottom=0;right=0;align=left;spacingLeft=6;overflow=hidden;whiteSpace=wrap;html=1;" parent="GK1M3SSGeQhj2WIBVa1E-234" vertex="1">
          <mxGeometry x="80" width="130" height="30" as="geometry">
            <mxRectangle width="130" height="30" as="alternateBounds" />
          </mxGeometry>
        </mxCell>
        <mxCell id="GK1M3SSGeQhj2WIBVa1E-237" value="" style="shape=tableRow;horizontal=0;startSize=0;swimlaneHead=0;swimlaneBody=0;fillColor=none;collapsible=0;dropTarget=0;points=[[0,0.5],[1,0.5]];portConstraint=eastwest;top=0;left=0;right=0;bottom=0;" parent="GK1M3SSGeQhj2WIBVa1E-230" vertex="1">
          <mxGeometry y="90" width="210" height="30" as="geometry" />
        </mxCell>
        <mxCell id="GK1M3SSGeQhj2WIBVa1E-238" value="varchar(20)" style="shape=partialRectangle;connectable=0;fillColor=none;top=0;left=0;bottom=0;right=0;editable=1;overflow=hidden;whiteSpace=wrap;html=1;" parent="GK1M3SSGeQhj2WIBVa1E-237" vertex="1">
          <mxGeometry width="80" height="30" as="geometry">
            <mxRectangle width="80" height="30" as="alternateBounds" />
          </mxGeometry>
        </mxCell>
        <mxCell id="GK1M3SSGeQhj2WIBVa1E-239" value="Status" style="shape=partialRectangle;connectable=0;fillColor=none;top=0;left=0;bottom=0;right=0;align=left;spacingLeft=6;overflow=hidden;whiteSpace=wrap;html=1;" parent="GK1M3SSGeQhj2WIBVa1E-237" vertex="1">
          <mxGeometry x="80" width="130" height="30" as="geometry">
            <mxRectangle width="130" height="30" as="alternateBounds" />
          </mxGeometry>
        </mxCell>
        <mxCell id="GK1M3SSGeQhj2WIBVa1E-255" value="" style="edgeStyle=entityRelationEdgeStyle;fontSize=12;html=1;endArrow=ERmandOne;startArrow=ERmandOne;rounded=0;" parent="1" source="GK1M3SSGeQhj2WIBVa1E-234" target="GK1M3SSGeQhj2WIBVa1E-184" edge="1">
          <mxGeometry width="100" height="100" relative="1" as="geometry">
            <mxPoint x="550" y="293" as="sourcePoint" />
            <mxPoint x="655" y="127" as="targetPoint" />
          </mxGeometry>
        </mxCell>
        <mxCell id="GK1M3SSGeQhj2WIBVa1E-256" value="Organization" style="shape=table;startSize=30;container=1;collapsible=1;childLayout=tableLayout;fixedRows=1;rowLines=0;fontStyle=1;align=center;resizeLast=1;html=1;" parent="1" vertex="1">
          <mxGeometry x="610" y="30" width="210" height="100" as="geometry" />
        </mxCell>
        <mxCell id="GK1M3SSGeQhj2WIBVa1E-257" value="" style="shape=tableRow;horizontal=0;startSize=0;swimlaneHead=0;swimlaneBody=0;fillColor=none;collapsible=0;dropTarget=0;points=[[0,0.5],[1,0.5]];portConstraint=eastwest;top=0;left=0;right=0;bottom=1;" parent="GK1M3SSGeQhj2WIBVa1E-256" vertex="1">
          <mxGeometry y="30" width="210" height="40" as="geometry" />
        </mxCell>
        <mxCell id="GK1M3SSGeQhj2WIBVa1E-258" value="PK, int" style="shape=partialRectangle;connectable=0;fillColor=none;top=0;left=0;bottom=0;right=0;fontStyle=1;overflow=hidden;whiteSpace=wrap;html=1;" parent="GK1M3SSGeQhj2WIBVa1E-257" vertex="1">
          <mxGeometry width="90.00000000000023" height="40" as="geometry">
            <mxRectangle width="90.00000000000023" height="40" as="alternateBounds" />
          </mxGeometry>
        </mxCell>
        <mxCell id="GK1M3SSGeQhj2WIBVa1E-259" value="OrganizationID" style="shape=partialRectangle;connectable=0;fillColor=none;top=0;left=0;bottom=0;right=0;align=left;spacingLeft=6;fontStyle=5;overflow=hidden;whiteSpace=wrap;html=1;" parent="GK1M3SSGeQhj2WIBVa1E-257" vertex="1">
          <mxGeometry x="90.00000000000023" width="119.99999999999977" height="40" as="geometry">
            <mxRectangle width="119.99999999999977" height="40" as="alternateBounds" />
          </mxGeometry>
        </mxCell>
        <mxCell id="GK1M3SSGeQhj2WIBVa1E-260" value="" style="shape=tableRow;horizontal=0;startSize=0;swimlaneHead=0;swimlaneBody=0;fillColor=none;collapsible=0;dropTarget=0;points=[[0,0.5],[1,0.5]];portConstraint=eastwest;top=0;left=0;right=0;bottom=0;" parent="GK1M3SSGeQhj2WIBVa1E-256" vertex="1">
          <mxGeometry y="70" width="210" height="30" as="geometry" />
        </mxCell>
        <mxCell id="GK1M3SSGeQhj2WIBVa1E-261" value="FK, int" style="shape=partialRectangle;connectable=0;fillColor=none;top=0;left=0;bottom=0;right=0;editable=1;overflow=hidden;whiteSpace=wrap;html=1;" parent="GK1M3SSGeQhj2WIBVa1E-260" vertex="1">
          <mxGeometry width="90.00000000000023" height="30" as="geometry">
            <mxRectangle width="90.00000000000023" height="30" as="alternateBounds" />
          </mxGeometry>
        </mxCell>
        <mxCell id="GK1M3SSGeQhj2WIBVa1E-262" value="ContactInfoID" style="shape=partialRectangle;connectable=0;fillColor=none;top=0;left=0;bottom=0;right=0;align=left;spacingLeft=6;overflow=hidden;whiteSpace=wrap;html=1;" parent="GK1M3SSGeQhj2WIBVa1E-260" vertex="1">
          <mxGeometry x="90.00000000000023" width="119.99999999999977" height="30" as="geometry">
            <mxRectangle width="119.99999999999977" height="30" as="alternateBounds" />
          </mxGeometry>
        </mxCell>
        <mxCell id="GK1M3SSGeQhj2WIBVa1E-269" value="" style="edgeStyle=entityRelationEdgeStyle;fontSize=12;html=1;endArrow=ERzeroToMany;startArrow=ERmandOne;rounded=0;exitX=-0.002;exitY=0.755;exitDx=0;exitDy=0;exitPerimeter=0;" parent="1" source="GK1M3SSGeQhj2WIBVa1E-257" target="GK1M3SSGeQhj2WIBVa1E-190" edge="1">
          <mxGeometry width="100" height="100" relative="1" as="geometry">
            <mxPoint x="873" y="-70" as="sourcePoint" />
            <mxPoint x="780" y="84" as="targetPoint" />
          </mxGeometry>
        </mxCell>
        <mxCell id="GK1M3SSGeQhj2WIBVa1E-270" value="" style="edgeStyle=entityRelationEdgeStyle;fontSize=12;html=1;endArrow=ERoneToMany;startArrow=ERmandOne;rounded=0;entryX=0.008;entryY=0.337;entryDx=0;entryDy=0;entryPerimeter=0;" parent="1" source="GK1M3SSGeQhj2WIBVa1E-161" target="GK1M3SSGeQhj2WIBVa1E-257" edge="1">
          <mxGeometry width="100" height="100" relative="1" as="geometry">
            <mxPoint x="160" y="-50" as="sourcePoint" />
            <mxPoint x="610" y="90" as="targetPoint" />
          </mxGeometry>
        </mxCell>
        <mxCell id="GK1M3SSGeQhj2WIBVa1E-271" value="User" style="shape=table;startSize=30;container=1;collapsible=1;childLayout=tableLayout;fixedRows=1;rowLines=0;fontStyle=1;align=center;resizeLast=1;html=1;" parent="1" vertex="1">
          <mxGeometry x="610" y="160" width="210" height="211" as="geometry" />
        </mxCell>
        <mxCell id="GK1M3SSGeQhj2WIBVa1E-272" value="" style="shape=tableRow;horizontal=0;startSize=0;swimlaneHead=0;swimlaneBody=0;fillColor=none;collapsible=0;dropTarget=0;points=[[0,0.5],[1,0.5]];portConstraint=eastwest;top=0;left=0;right=0;bottom=1;" parent="GK1M3SSGeQhj2WIBVa1E-271" vertex="1">
          <mxGeometry y="30" width="210" height="30" as="geometry" />
        </mxCell>
        <mxCell id="GK1M3SSGeQhj2WIBVa1E-273" value="PK, int" style="shape=partialRectangle;connectable=0;fillColor=none;top=0;left=0;bottom=0;right=0;fontStyle=1;overflow=hidden;whiteSpace=wrap;html=1;" parent="GK1M3SSGeQhj2WIBVa1E-272" vertex="1">
          <mxGeometry width="90" height="30" as="geometry">
            <mxRectangle width="90" height="30" as="alternateBounds" />
          </mxGeometry>
        </mxCell>
        <mxCell id="GK1M3SSGeQhj2WIBVa1E-274" value="UserID" style="shape=partialRectangle;connectable=0;fillColor=none;top=0;left=0;bottom=0;right=0;align=left;spacingLeft=6;fontStyle=5;overflow=hidden;whiteSpace=wrap;html=1;" parent="GK1M3SSGeQhj2WIBVa1E-272" vertex="1">
          <mxGeometry x="90" width="120" height="30" as="geometry">
            <mxRectangle width="120" height="30" as="alternateBounds" />
          </mxGeometry>
        </mxCell>
        <mxCell id="GK1M3SSGeQhj2WIBVa1E-275" value="" style="shape=tableRow;horizontal=0;startSize=0;swimlaneHead=0;swimlaneBody=0;fillColor=none;collapsible=0;dropTarget=0;points=[[0,0.5],[1,0.5]];portConstraint=eastwest;top=0;left=0;right=0;bottom=0;" parent="GK1M3SSGeQhj2WIBVa1E-271" vertex="1">
          <mxGeometry y="60" width="210" height="30" as="geometry" />
        </mxCell>
        <mxCell id="GK1M3SSGeQhj2WIBVa1E-276" value="nvarchar(50)" style="shape=partialRectangle;connectable=0;fillColor=none;top=0;left=0;bottom=0;right=0;editable=1;overflow=hidden;whiteSpace=wrap;html=1;" parent="GK1M3SSGeQhj2WIBVa1E-275" vertex="1">
          <mxGeometry width="90" height="30" as="geometry">
            <mxRectangle width="90" height="30" as="alternateBounds" />
          </mxGeometry>
        </mxCell>
        <mxCell id="GK1M3SSGeQhj2WIBVa1E-277" value="FirstName" style="shape=partialRectangle;connectable=0;fillColor=none;top=0;left=0;bottom=0;right=0;align=left;spacingLeft=6;overflow=hidden;whiteSpace=wrap;html=1;" parent="GK1M3SSGeQhj2WIBVa1E-275" vertex="1">
          <mxGeometry x="90" width="120" height="30" as="geometry">
            <mxRectangle width="120" height="30" as="alternateBounds" />
          </mxGeometry>
        </mxCell>
        <mxCell id="GK1M3SSGeQhj2WIBVa1E-278" value="" style="shape=tableRow;horizontal=0;startSize=0;swimlaneHead=0;swimlaneBody=0;fillColor=none;collapsible=0;dropTarget=0;points=[[0,0.5],[1,0.5]];portConstraint=eastwest;top=0;left=0;right=0;bottom=0;" parent="GK1M3SSGeQhj2WIBVa1E-271" vertex="1">
          <mxGeometry y="90" width="210" height="30" as="geometry" />
        </mxCell>
        <mxCell id="GK1M3SSGeQhj2WIBVa1E-279" value="nvarchar(50)" style="shape=partialRectangle;connectable=0;fillColor=none;top=0;left=0;bottom=0;right=0;editable=1;overflow=hidden;whiteSpace=wrap;html=1;" parent="GK1M3SSGeQhj2WIBVa1E-278" vertex="1">
          <mxGeometry width="90" height="30" as="geometry">
            <mxRectangle width="90" height="30" as="alternateBounds" />
          </mxGeometry>
        </mxCell>
        <mxCell id="GK1M3SSGeQhj2WIBVa1E-280" value="LastName" style="shape=partialRectangle;connectable=0;fillColor=none;top=0;left=0;bottom=0;right=0;align=left;spacingLeft=6;overflow=hidden;whiteSpace=wrap;html=1;" parent="GK1M3SSGeQhj2WIBVa1E-278" vertex="1">
          <mxGeometry x="90" width="120" height="30" as="geometry">
            <mxRectangle width="120" height="30" as="alternateBounds" />
          </mxGeometry>
        </mxCell>
        <mxCell id="GK1M3SSGeQhj2WIBVa1E-281" value="" style="shape=tableRow;horizontal=0;startSize=0;swimlaneHead=0;swimlaneBody=0;fillColor=none;collapsible=0;dropTarget=0;points=[[0,0.5],[1,0.5]];portConstraint=eastwest;top=0;left=0;right=0;bottom=0;" parent="GK1M3SSGeQhj2WIBVa1E-271" vertex="1">
          <mxGeometry y="120" width="210" height="30" as="geometry" />
        </mxCell>
        <mxCell id="GK1M3SSGeQhj2WIBVa1E-282" value="nvarchar(50)" style="shape=partialRectangle;connectable=0;fillColor=none;top=0;left=0;bottom=0;right=0;editable=1;overflow=hidden;whiteSpace=wrap;html=1;" parent="GK1M3SSGeQhj2WIBVa1E-281" vertex="1">
          <mxGeometry width="90" height="30" as="geometry">
            <mxRectangle width="90" height="30" as="alternateBounds" />
          </mxGeometry>
        </mxCell>
        <mxCell id="GK1M3SSGeQhj2WIBVa1E-283" value="Email" style="shape=partialRectangle;connectable=0;fillColor=none;top=0;left=0;bottom=0;right=0;align=left;spacingLeft=6;overflow=hidden;whiteSpace=wrap;html=1;" parent="GK1M3SSGeQhj2WIBVa1E-281" vertex="1">
          <mxGeometry x="90" width="120" height="30" as="geometry">
            <mxRectangle width="120" height="30" as="alternateBounds" />
          </mxGeometry>
        </mxCell>
        <mxCell id="GK1M3SSGeQhj2WIBVa1E-284" value="" style="shape=tableRow;horizontal=0;startSize=0;swimlaneHead=0;swimlaneBody=0;fillColor=none;collapsible=0;dropTarget=0;points=[[0,0.5],[1,0.5]];portConstraint=eastwest;top=0;left=0;right=0;bottom=0;" parent="GK1M3SSGeQhj2WIBVa1E-271" vertex="1">
          <mxGeometry y="150" width="210" height="30" as="geometry" />
        </mxCell>
        <mxCell id="GK1M3SSGeQhj2WIBVa1E-285" value="varchar(20)" style="shape=partialRectangle;connectable=0;fillColor=none;top=0;left=0;bottom=0;right=0;editable=1;overflow=hidden;whiteSpace=wrap;html=1;" parent="GK1M3SSGeQhj2WIBVa1E-284" vertex="1">
          <mxGeometry width="90" height="30" as="geometry">
            <mxRectangle width="90" height="30" as="alternateBounds" />
          </mxGeometry>
        </mxCell>
        <mxCell id="GK1M3SSGeQhj2WIBVa1E-286" value="PhoneNumber" style="shape=partialRectangle;connectable=0;fillColor=none;top=0;left=0;bottom=0;right=0;align=left;spacingLeft=6;overflow=hidden;whiteSpace=wrap;html=1;" parent="GK1M3SSGeQhj2WIBVa1E-284" vertex="1">
          <mxGeometry x="90" width="120" height="30" as="geometry">
            <mxRectangle width="120" height="30" as="alternateBounds" />
          </mxGeometry>
        </mxCell>
        <mxCell id="GK1M3SSGeQhj2WIBVa1E-287" value="" style="shape=tableRow;horizontal=0;startSize=0;swimlaneHead=0;swimlaneBody=0;fillColor=none;collapsible=0;dropTarget=0;points=[[0,0.5],[1,0.5]];portConstraint=eastwest;top=0;left=0;right=0;bottom=0;" parent="GK1M3SSGeQhj2WIBVa1E-271" vertex="1">
          <mxGeometry y="180" width="210" height="30" as="geometry" />
        </mxCell>
        <mxCell id="GK1M3SSGeQhj2WIBVa1E-288" value="datetime" style="shape=partialRectangle;connectable=0;fillColor=none;top=0;left=0;bottom=0;right=0;editable=1;overflow=hidden;whiteSpace=wrap;html=1;" parent="GK1M3SSGeQhj2WIBVa1E-287" vertex="1">
          <mxGeometry width="90" height="30" as="geometry">
            <mxRectangle width="90" height="30" as="alternateBounds" />
          </mxGeometry>
        </mxCell>
        <mxCell id="GK1M3SSGeQhj2WIBVa1E-289" value="BirthDate" style="shape=partialRectangle;connectable=0;fillColor=none;top=0;left=0;bottom=0;right=0;align=left;spacingLeft=6;overflow=hidden;whiteSpace=wrap;html=1;" parent="GK1M3SSGeQhj2WIBVa1E-287" vertex="1">
          <mxGeometry x="90" width="120" height="30" as="geometry">
            <mxRectangle width="120" height="30" as="alternateBounds" />
          </mxGeometry>
        </mxCell>
        <mxCell id="GK1M3SSGeQhj2WIBVa1E-290" value="" style="edgeStyle=entityRelationEdgeStyle;fontSize=12;html=1;endArrow=ERzeroToMany;startArrow=ERmandOne;rounded=0;" parent="1" source="GK1M3SSGeQhj2WIBVa1E-272" target="GK1M3SSGeQhj2WIBVa1E-193" edge="1">
          <mxGeometry width="100" height="100" relative="1" as="geometry">
            <mxPoint x="510" y="50" as="sourcePoint" />
            <mxPoint x="415" y="60" as="targetPoint" />
          </mxGeometry>
        </mxCell>
        <mxCell id="GK1M3SSGeQhj2WIBVa1E-291" value="ContactInfo" style="shape=table;startSize=30;container=1;collapsible=1;childLayout=tableLayout;fixedRows=1;rowLines=0;fontStyle=1;align=center;resizeLast=1;html=1;" parent="1" vertex="1">
          <mxGeometry x="610" y="400" width="210" height="130" as="geometry" />
        </mxCell>
        <mxCell id="GK1M3SSGeQhj2WIBVa1E-292" value="" style="shape=tableRow;horizontal=0;startSize=0;swimlaneHead=0;swimlaneBody=0;fillColor=none;collapsible=0;dropTarget=0;points=[[0,0.5],[1,0.5]];portConstraint=eastwest;top=0;left=0;right=0;bottom=1;" parent="GK1M3SSGeQhj2WIBVa1E-291" vertex="1">
          <mxGeometry y="30" width="210" height="30" as="geometry" />
        </mxCell>
        <mxCell id="GK1M3SSGeQhj2WIBVa1E-293" value="PK. int" style="shape=partialRectangle;connectable=0;fillColor=none;top=0;left=0;bottom=0;right=0;fontStyle=1;overflow=hidden;whiteSpace=wrap;html=1;" parent="GK1M3SSGeQhj2WIBVa1E-292" vertex="1">
          <mxGeometry width="90" height="30" as="geometry">
            <mxRectangle width="90" height="30" as="alternateBounds" />
          </mxGeometry>
        </mxCell>
        <mxCell id="GK1M3SSGeQhj2WIBVa1E-294" value="ContactInfoID" style="shape=partialRectangle;connectable=0;fillColor=none;top=0;left=0;bottom=0;right=0;align=left;spacingLeft=6;fontStyle=5;overflow=hidden;whiteSpace=wrap;html=1;" parent="GK1M3SSGeQhj2WIBVa1E-292" vertex="1">
          <mxGeometry x="90" width="120" height="30" as="geometry">
            <mxRectangle width="120" height="30" as="alternateBounds" />
          </mxGeometry>
        </mxCell>
        <mxCell id="GK1M3SSGeQhj2WIBVa1E-295" value="" style="shape=tableRow;horizontal=0;startSize=0;swimlaneHead=0;swimlaneBody=0;fillColor=none;collapsible=0;dropTarget=0;points=[[0,0.5],[1,0.5]];portConstraint=eastwest;top=0;left=0;right=0;bottom=0;" parent="GK1M3SSGeQhj2WIBVa1E-291" vertex="1">
          <mxGeometry y="60" width="210" height="40" as="geometry" />
        </mxCell>
        <mxCell id="GK1M3SSGeQhj2WIBVa1E-296" value="vnvarchar(50)" style="shape=partialRectangle;connectable=0;fillColor=none;top=0;left=0;bottom=0;right=0;editable=1;overflow=hidden;whiteSpace=wrap;html=1;" parent="GK1M3SSGeQhj2WIBVa1E-295" vertex="1">
          <mxGeometry width="90" height="40" as="geometry">
            <mxRectangle width="90" height="40" as="alternateBounds" />
          </mxGeometry>
        </mxCell>
        <mxCell id="GK1M3SSGeQhj2WIBVa1E-297" value="Name" style="shape=partialRectangle;connectable=0;fillColor=none;top=0;left=0;bottom=0;right=0;align=left;spacingLeft=6;overflow=hidden;whiteSpace=wrap;html=1;" parent="GK1M3SSGeQhj2WIBVa1E-295" vertex="1">
          <mxGeometry x="90" width="120" height="40" as="geometry">
            <mxRectangle width="120" height="40" as="alternateBounds" />
          </mxGeometry>
        </mxCell>
        <mxCell id="GK1M3SSGeQhj2WIBVa1E-298" value="" style="shape=tableRow;horizontal=0;startSize=0;swimlaneHead=0;swimlaneBody=0;fillColor=none;collapsible=0;dropTarget=0;points=[[0,0.5],[1,0.5]];portConstraint=eastwest;top=0;left=0;right=0;bottom=0;" parent="GK1M3SSGeQhj2WIBVa1E-291" vertex="1">
          <mxGeometry y="100" width="210" height="30" as="geometry" />
        </mxCell>
        <mxCell id="GK1M3SSGeQhj2WIBVa1E-299" value="nvarchar(50)" style="shape=partialRectangle;connectable=0;fillColor=none;top=0;left=0;bottom=0;right=0;editable=1;overflow=hidden;whiteSpace=wrap;html=1;" parent="GK1M3SSGeQhj2WIBVa1E-298" vertex="1">
          <mxGeometry width="90" height="30" as="geometry">
            <mxRectangle width="90" height="30" as="alternateBounds" />
          </mxGeometry>
        </mxCell>
        <mxCell id="GK1M3SSGeQhj2WIBVa1E-300" value="Email" style="shape=partialRectangle;connectable=0;fillColor=none;top=0;left=0;bottom=0;right=0;align=left;spacingLeft=6;overflow=hidden;whiteSpace=wrap;html=1;" parent="GK1M3SSGeQhj2WIBVa1E-298" vertex="1">
          <mxGeometry x="90" width="120" height="30" as="geometry">
            <mxRectangle width="120" height="30" as="alternateBounds" />
          </mxGeometry>
        </mxCell>
        <mxCell id="GK1M3SSGeQhj2WIBVa1E-301" value="" style="edgeStyle=entityRelationEdgeStyle;fontSize=12;html=1;endArrow=ERoneToMany;startArrow=ERoneToMany;rounded=0;" parent="1" source="GK1M3SSGeQhj2WIBVa1E-292" target="GK1M3SSGeQhj2WIBVa1E-260" edge="1">
          <mxGeometry width="100" height="100" relative="1" as="geometry">
            <mxPoint x="1110" y="180" as="sourcePoint" />
            <mxPoint x="1110" y="-150" as="targetPoint" />
          </mxGeometry>
        </mxCell>
        <mxCell id="GK1M3SSGeQhj2WIBVa1E-302" value="LocatedIn" style="shape=table;startSize=30;container=1;collapsible=1;childLayout=tableLayout;fixedRows=1;rowLines=0;fontStyle=1;align=center;resizeLast=1;html=1;whiteSpace=wrap;" parent="1" vertex="1">
          <mxGeometry x="910" y="30" width="210" height="90" as="geometry" />
        </mxCell>
        <mxCell id="GK1M3SSGeQhj2WIBVa1E-303" value="" style="shape=tableRow;horizontal=0;startSize=0;swimlaneHead=0;swimlaneBody=0;fillColor=none;collapsible=0;dropTarget=0;points=[[0,0.5],[1,0.5]];portConstraint=eastwest;top=0;left=0;right=0;bottom=0;html=1;" parent="GK1M3SSGeQhj2WIBVa1E-302" vertex="1">
          <mxGeometry y="30" width="210" height="30" as="geometry" />
        </mxCell>
        <mxCell id="GK1M3SSGeQhj2WIBVa1E-304" value="PK,FK, int" style="shape=partialRectangle;connectable=0;fillColor=none;top=0;left=0;bottom=0;right=0;fontStyle=1;overflow=hidden;html=1;whiteSpace=wrap;" parent="GK1M3SSGeQhj2WIBVa1E-303" vertex="1">
          <mxGeometry width="90" height="30" as="geometry">
            <mxRectangle width="90" height="30" as="alternateBounds" />
          </mxGeometry>
        </mxCell>
        <mxCell id="GK1M3SSGeQhj2WIBVa1E-305" value="OrganizationID" style="shape=partialRectangle;connectable=0;fillColor=none;top=0;left=0;bottom=0;right=0;align=left;spacingLeft=6;fontStyle=5;overflow=hidden;html=1;whiteSpace=wrap;" parent="GK1M3SSGeQhj2WIBVa1E-303" vertex="1">
          <mxGeometry x="90" width="120" height="30" as="geometry">
            <mxRectangle width="120" height="30" as="alternateBounds" />
          </mxGeometry>
        </mxCell>
        <mxCell id="GK1M3SSGeQhj2WIBVa1E-306" value="" style="shape=tableRow;horizontal=0;startSize=0;swimlaneHead=0;swimlaneBody=0;fillColor=none;collapsible=0;dropTarget=0;points=[[0,0.5],[1,0.5]];portConstraint=eastwest;top=0;left=0;right=0;bottom=1;html=1;" parent="GK1M3SSGeQhj2WIBVa1E-302" vertex="1">
          <mxGeometry y="60" width="210" height="30" as="geometry" />
        </mxCell>
        <mxCell id="GK1M3SSGeQhj2WIBVa1E-307" value="PK,FK, int" style="shape=partialRectangle;connectable=0;fillColor=none;top=0;left=0;bottom=0;right=0;fontStyle=1;overflow=hidden;html=1;whiteSpace=wrap;" parent="GK1M3SSGeQhj2WIBVa1E-306" vertex="1">
          <mxGeometry width="90" height="30" as="geometry">
            <mxRectangle width="90" height="30" as="alternateBounds" />
          </mxGeometry>
        </mxCell>
        <mxCell id="GK1M3SSGeQhj2WIBVa1E-308" value="PlaceID" style="shape=partialRectangle;connectable=0;fillColor=none;top=0;left=0;bottom=0;right=0;align=left;spacingLeft=6;fontStyle=5;overflow=hidden;html=1;whiteSpace=wrap;" parent="GK1M3SSGeQhj2WIBVa1E-306" vertex="1">
          <mxGeometry x="90" width="120" height="30" as="geometry">
            <mxRectangle width="120" height="30" as="alternateBounds" />
          </mxGeometry>
        </mxCell>
        <mxCell id="GK1M3SSGeQhj2WIBVa1E-312" value="" style="edgeStyle=entityRelationEdgeStyle;fontSize=12;html=1;endArrow=ERmany;startArrow=ERmany;rounded=0;exitX=0.997;exitY=0.194;exitDx=0;exitDy=0;exitPerimeter=0;" parent="1" source="GK1M3SSGeQhj2WIBVa1E-257" target="GK1M3SSGeQhj2WIBVa1E-303" edge="1">
          <mxGeometry width="100" height="100" relative="1" as="geometry">
            <mxPoint x="920" y="-79" as="sourcePoint" />
            <mxPoint x="1018" y="-80" as="targetPoint" />
          </mxGeometry>
        </mxCell>
        <mxCell id="GK1M3SSGeQhj2WIBVa1E-313" value="ServiceType" style="shape=table;startSize=30;container=1;collapsible=1;childLayout=tableLayout;fixedRows=1;rowLines=0;fontStyle=1;align=center;resizeLast=1;html=1;" parent="1" vertex="1">
          <mxGeometry x="910" y="140" width="210" height="120" as="geometry" />
        </mxCell>
        <mxCell id="GK1M3SSGeQhj2WIBVa1E-335" style="shape=tableRow;horizontal=0;startSize=0;swimlaneHead=0;swimlaneBody=0;fillColor=none;collapsible=0;dropTarget=0;points=[[0,0.5],[1,0.5]];portConstraint=eastwest;top=0;left=0;right=0;bottom=1;" parent="GK1M3SSGeQhj2WIBVa1E-313" vertex="1">
          <mxGeometry y="30" width="210" height="30" as="geometry" />
        </mxCell>
        <mxCell id="GK1M3SSGeQhj2WIBVa1E-336" value="PK, int" style="shape=partialRectangle;connectable=0;fillColor=none;top=0;left=0;bottom=0;right=0;fontStyle=1;overflow=hidden;whiteSpace=wrap;html=1;" parent="GK1M3SSGeQhj2WIBVa1E-335" vertex="1">
          <mxGeometry width="100" height="30" as="geometry">
            <mxRectangle width="100" height="30" as="alternateBounds" />
          </mxGeometry>
        </mxCell>
        <mxCell id="GK1M3SSGeQhj2WIBVa1E-337" value="ServiceID" style="shape=partialRectangle;connectable=0;fillColor=none;top=0;left=0;bottom=0;right=0;align=left;spacingLeft=6;fontStyle=5;overflow=hidden;whiteSpace=wrap;html=1;" parent="GK1M3SSGeQhj2WIBVa1E-335" vertex="1">
          <mxGeometry x="100" width="110" height="30" as="geometry">
            <mxRectangle width="110" height="30" as="alternateBounds" />
          </mxGeometry>
        </mxCell>
        <mxCell id="GK1M3SSGeQhj2WIBVa1E-317" value="" style="shape=tableRow;horizontal=0;startSize=0;swimlaneHead=0;swimlaneBody=0;fillColor=none;collapsible=0;dropTarget=0;points=[[0,0.5],[1,0.5]];portConstraint=eastwest;top=0;left=0;right=0;bottom=0;" parent="GK1M3SSGeQhj2WIBVa1E-313" vertex="1">
          <mxGeometry y="60" width="210" height="30" as="geometry" />
        </mxCell>
        <mxCell id="GK1M3SSGeQhj2WIBVa1E-318" value="FK, int" style="shape=partialRectangle;connectable=0;fillColor=none;top=0;left=0;bottom=0;right=0;editable=1;overflow=hidden;whiteSpace=wrap;html=1;" parent="GK1M3SSGeQhj2WIBVa1E-317" vertex="1">
          <mxGeometry width="100" height="30" as="geometry">
            <mxRectangle width="100" height="30" as="alternateBounds" />
          </mxGeometry>
        </mxCell>
        <mxCell id="GK1M3SSGeQhj2WIBVa1E-319" value="OrganizationID" style="shape=partialRectangle;connectable=0;fillColor=none;top=0;left=0;bottom=0;right=0;align=left;spacingLeft=6;overflow=hidden;whiteSpace=wrap;html=1;" parent="GK1M3SSGeQhj2WIBVa1E-317" vertex="1">
          <mxGeometry x="100" width="110" height="30" as="geometry">
            <mxRectangle width="110" height="30" as="alternateBounds" />
          </mxGeometry>
        </mxCell>
        <mxCell id="GK1M3SSGeQhj2WIBVa1E-341" style="shape=tableRow;horizontal=0;startSize=0;swimlaneHead=0;swimlaneBody=0;fillColor=none;collapsible=0;dropTarget=0;points=[[0,0.5],[1,0.5]];portConstraint=eastwest;top=0;left=0;right=0;bottom=0;" parent="GK1M3SSGeQhj2WIBVa1E-313" vertex="1">
          <mxGeometry y="90" width="210" height="30" as="geometry" />
        </mxCell>
        <mxCell id="GK1M3SSGeQhj2WIBVa1E-342" value="nvarchar(50)" style="shape=partialRectangle;connectable=0;fillColor=none;top=0;left=0;bottom=0;right=0;editable=1;overflow=hidden;whiteSpace=wrap;html=1;" parent="GK1M3SSGeQhj2WIBVa1E-341" vertex="1">
          <mxGeometry width="100" height="30" as="geometry">
            <mxRectangle width="100" height="30" as="alternateBounds" />
          </mxGeometry>
        </mxCell>
        <mxCell id="GK1M3SSGeQhj2WIBVa1E-343" value="Name" style="shape=partialRectangle;connectable=0;fillColor=none;top=0;left=0;bottom=0;right=0;align=left;spacingLeft=6;overflow=hidden;whiteSpace=wrap;html=1;" parent="GK1M3SSGeQhj2WIBVa1E-341" vertex="1">
          <mxGeometry x="100" width="110" height="30" as="geometry">
            <mxRectangle width="110" height="30" as="alternateBounds" />
          </mxGeometry>
        </mxCell>
        <mxCell id="GK1M3SSGeQhj2WIBVa1E-320" value="" style="edgeStyle=entityRelationEdgeStyle;fontSize=12;html=1;endArrow=ERoneToMany;startArrow=ERmandOne;rounded=0;exitX=1;exitY=0.781;exitDx=0;exitDy=0;exitPerimeter=0;" parent="1" source="GK1M3SSGeQhj2WIBVa1E-257" target="GK1M3SSGeQhj2WIBVa1E-317" edge="1">
          <mxGeometry width="100" height="100" relative="1" as="geometry">
            <mxPoint x="1110" y="-210" as="sourcePoint" />
            <mxPoint x="1209" y="-88" as="targetPoint" />
          </mxGeometry>
        </mxCell>
        <mxCell id="GK1M3SSGeQhj2WIBVa1E-321" value="Place" style="shape=table;startSize=30;container=1;collapsible=1;childLayout=tableLayout;fixedRows=1;rowLines=0;fontStyle=1;align=center;resizeLast=1;html=1;" parent="1" vertex="1">
          <mxGeometry x="910" y="270.5" width="210" height="150" as="geometry" />
        </mxCell>
        <mxCell id="GK1M3SSGeQhj2WIBVa1E-322" value="" style="shape=tableRow;horizontal=0;startSize=0;swimlaneHead=0;swimlaneBody=0;fillColor=none;collapsible=0;dropTarget=0;points=[[0,0.5],[1,0.5]];portConstraint=eastwest;top=0;left=0;right=0;bottom=1;" parent="GK1M3SSGeQhj2WIBVa1E-321" vertex="1">
          <mxGeometry y="30" width="210" height="30" as="geometry" />
        </mxCell>
        <mxCell id="GK1M3SSGeQhj2WIBVa1E-323" value="PK, int" style="shape=partialRectangle;connectable=0;fillColor=none;top=0;left=0;bottom=0;right=0;fontStyle=1;overflow=hidden;whiteSpace=wrap;html=1;" parent="GK1M3SSGeQhj2WIBVa1E-322" vertex="1">
          <mxGeometry width="90" height="30" as="geometry">
            <mxRectangle width="90" height="30" as="alternateBounds" />
          </mxGeometry>
        </mxCell>
        <mxCell id="GK1M3SSGeQhj2WIBVa1E-324" value="PlaceID" style="shape=partialRectangle;connectable=0;fillColor=none;top=0;left=0;bottom=0;right=0;align=left;spacingLeft=6;fontStyle=5;overflow=hidden;whiteSpace=wrap;html=1;" parent="GK1M3SSGeQhj2WIBVa1E-322" vertex="1">
          <mxGeometry x="90" width="120" height="30" as="geometry">
            <mxRectangle width="120" height="30" as="alternateBounds" />
          </mxGeometry>
        </mxCell>
        <mxCell id="GK1M3SSGeQhj2WIBVa1E-325" value="" style="shape=tableRow;horizontal=0;startSize=0;swimlaneHead=0;swimlaneBody=0;fillColor=none;collapsible=0;dropTarget=0;points=[[0,0.5],[1,0.5]];portConstraint=eastwest;top=0;left=0;right=0;bottom=0;" parent="GK1M3SSGeQhj2WIBVa1E-321" vertex="1">
          <mxGeometry y="60" width="210" height="30" as="geometry" />
        </mxCell>
        <mxCell id="GK1M3SSGeQhj2WIBVa1E-326" value="nvarchar(200)" style="shape=partialRectangle;connectable=0;fillColor=none;top=0;left=0;bottom=0;right=0;editable=1;overflow=hidden;whiteSpace=wrap;html=1;" parent="GK1M3SSGeQhj2WIBVa1E-325" vertex="1">
          <mxGeometry width="90" height="30" as="geometry">
            <mxRectangle width="90" height="30" as="alternateBounds" />
          </mxGeometry>
        </mxCell>
        <mxCell id="GK1M3SSGeQhj2WIBVa1E-327" value="Street" style="shape=partialRectangle;connectable=0;fillColor=none;top=0;left=0;bottom=0;right=0;align=left;spacingLeft=6;overflow=hidden;whiteSpace=wrap;html=1;" parent="GK1M3SSGeQhj2WIBVa1E-325" vertex="1">
          <mxGeometry x="90" width="120" height="30" as="geometry">
            <mxRectangle width="120" height="30" as="alternateBounds" />
          </mxGeometry>
        </mxCell>
        <mxCell id="GK1M3SSGeQhj2WIBVa1E-328" value="" style="shape=tableRow;horizontal=0;startSize=0;swimlaneHead=0;swimlaneBody=0;fillColor=none;collapsible=0;dropTarget=0;points=[[0,0.5],[1,0.5]];portConstraint=eastwest;top=0;left=0;right=0;bottom=0;" parent="GK1M3SSGeQhj2WIBVa1E-321" vertex="1">
          <mxGeometry y="90" width="210" height="30" as="geometry" />
        </mxCell>
        <mxCell id="GK1M3SSGeQhj2WIBVa1E-329" value="int" style="shape=partialRectangle;connectable=0;fillColor=none;top=0;left=0;bottom=0;right=0;editable=1;overflow=hidden;whiteSpace=wrap;html=1;" parent="GK1M3SSGeQhj2WIBVa1E-328" vertex="1">
          <mxGeometry width="90" height="30" as="geometry">
            <mxRectangle width="90" height="30" as="alternateBounds" />
          </mxGeometry>
        </mxCell>
        <mxCell id="GK1M3SSGeQhj2WIBVa1E-330" value="ZipCode" style="shape=partialRectangle;connectable=0;fillColor=none;top=0;left=0;bottom=0;right=0;align=left;spacingLeft=6;overflow=hidden;whiteSpace=wrap;html=1;" parent="GK1M3SSGeQhj2WIBVa1E-328" vertex="1">
          <mxGeometry x="90" width="120" height="30" as="geometry">
            <mxRectangle width="120" height="30" as="alternateBounds" />
          </mxGeometry>
        </mxCell>
        <mxCell id="GK1M3SSGeQhj2WIBVa1E-331" value="" style="shape=tableRow;horizontal=0;startSize=0;swimlaneHead=0;swimlaneBody=0;fillColor=none;collapsible=0;dropTarget=0;points=[[0,0.5],[1,0.5]];portConstraint=eastwest;top=0;left=0;right=0;bottom=0;" parent="GK1M3SSGeQhj2WIBVa1E-321" vertex="1">
          <mxGeometry y="120" width="210" height="30" as="geometry" />
        </mxCell>
        <mxCell id="GK1M3SSGeQhj2WIBVa1E-332" value="nvarchar(50)" style="shape=partialRectangle;connectable=0;fillColor=none;top=0;left=0;bottom=0;right=0;editable=1;overflow=hidden;whiteSpace=wrap;html=1;" parent="GK1M3SSGeQhj2WIBVa1E-331" vertex="1">
          <mxGeometry width="90" height="30" as="geometry">
            <mxRectangle width="90" height="30" as="alternateBounds" />
          </mxGeometry>
        </mxCell>
        <mxCell id="GK1M3SSGeQhj2WIBVa1E-333" value="City" style="shape=partialRectangle;connectable=0;fillColor=none;top=0;left=0;bottom=0;right=0;align=left;spacingLeft=6;overflow=hidden;whiteSpace=wrap;html=1;" parent="GK1M3SSGeQhj2WIBVa1E-331" vertex="1">
          <mxGeometry x="90" width="120" height="30" as="geometry">
            <mxRectangle width="120" height="30" as="alternateBounds" />
          </mxGeometry>
        </mxCell>
        <mxCell id="GK1M3SSGeQhj2WIBVa1E-334" value="" style="edgeStyle=entityRelationEdgeStyle;fontSize=12;html=1;endArrow=ERmany;startArrow=ERmany;rounded=0;" parent="1" source="GK1M3SSGeQhj2WIBVa1E-306" target="GK1M3SSGeQhj2WIBVa1E-322" edge="1">
          <mxGeometry width="100" height="100" relative="1" as="geometry">
            <mxPoint x="1285" y="-245" as="sourcePoint" />
            <mxPoint x="1285" y="-30" as="targetPoint" />
          </mxGeometry>
        </mxCell>
      </root>
    </mxGraphModel>
  </diagram>
</mxfile>
